<mxfile host="app.diagrams.net" modified="2023-06-21T17:08:42.888Z" agent="Mozilla/5.0 (Windows NT 10.0; Win64; x64) AppleWebKit/537.36 (KHTML, like Gecko) Chrome/114.0.0.0 Safari/537.36 Edg/114.0.1823.51" version="21.4.0" etag="E2vqX75S65NX8uCj0Ytn" type="github">
  <diagram name="Page-1" id="uF0zH76Vvwj8AbwEgFUf">
    <mxGraphModel>
      <root>
        <mxCell id="0" />
        <mxCell id="1" parent="0" />
      </root>
    </mxGraphModel>
  </diagram>
</mxfile>
